<mxfile host="app.diagrams.net" agent="Mozilla/5.0 (X11; Linux x86_64) AppleWebKit/537.36 (KHTML, like Gecko) Chrome/140.0.0.0 Safari/537.36" version="28.2.5">
  <diagram name="Страница — 1" id="WKN6_aHiLJ9qFVDw1uDE">
    <mxGraphModel dx="983" dy="541" grid="1" gridSize="10" guides="1" tooltips="1" connect="1" arrows="1" fold="1" page="1" pageScale="1" pageWidth="827" pageHeight="1169" math="0" shadow="0">
      <root>
        <mxCell id="0" />
        <mxCell id="1" parent="0" />
        <mxCell id="iEVl-Ih44DvoOuaY-pbR-16" value="Room/number" style="swimlane;childLayout=stackLayout;horizontal=1;startSize=50;horizontalStack=0;rounded=1;fontSize=14;fontStyle=0;strokeWidth=2;resizeParent=0;resizeLast=1;shadow=0;dashed=0;align=center;arcSize=4;whiteSpace=wrap;html=1;" vertex="1" parent="1">
          <mxGeometry x="493" y="480" width="160" height="145" as="geometry" />
        </mxCell>
        <mxCell id="iEVl-Ih44DvoOuaY-pbR-17" value="Room_ID&lt;br&gt;Accommodations_ID&lt;br&gt;Room number&lt;div&gt;Price&lt;/div&gt;&lt;div&gt;Bed spaces&lt;br&gt;Status&lt;/div&gt;" style="align=left;strokeColor=none;fillColor=none;spacingLeft=4;spacingRight=4;fontSize=12;verticalAlign=top;resizable=0;rotatable=0;part=1;html=1;whiteSpace=wrap;" vertex="1" parent="iEVl-Ih44DvoOuaY-pbR-16">
          <mxGeometry y="50" width="160" height="95" as="geometry" />
        </mxCell>
        <mxCell id="iEVl-Ih44DvoOuaY-pbR-20" value="Accommodations" style="swimlane;childLayout=stackLayout;horizontal=1;startSize=50;horizontalStack=0;rounded=1;fontSize=14;fontStyle=0;strokeWidth=2;resizeParent=0;resizeLast=1;shadow=0;dashed=0;align=center;arcSize=4;whiteSpace=wrap;html=1;" vertex="1" parent="1">
          <mxGeometry x="333" y="150" width="160" height="150" as="geometry" />
        </mxCell>
        <mxCell id="iEVl-Ih44DvoOuaY-pbR-21" value="User_ID&lt;br&gt;Room_ID&lt;div&gt;Reservation_ID&lt;/div&gt;" style="align=left;strokeColor=none;fillColor=none;spacingLeft=4;spacingRight=4;fontSize=12;verticalAlign=top;resizable=0;rotatable=0;part=1;html=1;whiteSpace=wrap;" vertex="1" parent="iEVl-Ih44DvoOuaY-pbR-20">
          <mxGeometry y="50" width="160" height="100" as="geometry" />
        </mxCell>
        <mxCell id="iEVl-Ih44DvoOuaY-pbR-22" value="User" style="swimlane;childLayout=stackLayout;horizontal=1;startSize=50;horizontalStack=0;rounded=1;fontSize=14;fontStyle=0;strokeWidth=2;resizeParent=0;resizeLast=1;shadow=0;dashed=0;align=center;arcSize=4;whiteSpace=wrap;html=1;" vertex="1" parent="1">
          <mxGeometry x="80" y="180" width="160" height="120" as="geometry" />
        </mxCell>
        <mxCell id="iEVl-Ih44DvoOuaY-pbR-23" value="User_ID&lt;div&gt;Name&lt;br&gt;Email&lt;/div&gt;&lt;div&gt;Contact number&lt;/div&gt;" style="align=left;strokeColor=none;fillColor=none;spacingLeft=4;spacingRight=4;fontSize=12;verticalAlign=top;resizable=0;rotatable=0;part=1;html=1;whiteSpace=wrap;" vertex="1" parent="iEVl-Ih44DvoOuaY-pbR-22">
          <mxGeometry y="50" width="160" height="70" as="geometry" />
        </mxCell>
        <mxCell id="iEVl-Ih44DvoOuaY-pbR-24" value="Review section" style="swimlane;childLayout=stackLayout;horizontal=1;startSize=50;horizontalStack=0;rounded=1;fontSize=14;fontStyle=0;strokeWidth=2;resizeParent=0;resizeLast=1;shadow=0;dashed=0;align=center;arcSize=4;whiteSpace=wrap;html=1;" vertex="1" parent="1">
          <mxGeometry x="610" y="260" width="160" height="150" as="geometry" />
        </mxCell>
        <mxCell id="iEVl-Ih44DvoOuaY-pbR-25" value="Review_ID&lt;br&gt;User_ID&lt;div&gt;Accommodations_ID&lt;br&gt;Rating&lt;br&gt;Comment&lt;br&gt;Date&lt;/div&gt;" style="align=left;strokeColor=none;fillColor=none;spacingLeft=4;spacingRight=4;fontSize=12;verticalAlign=top;resizable=0;rotatable=0;part=1;html=1;whiteSpace=wrap;" vertex="1" parent="iEVl-Ih44DvoOuaY-pbR-24">
          <mxGeometry y="50" width="160" height="100" as="geometry" />
        </mxCell>
        <mxCell id="iEVl-Ih44DvoOuaY-pbR-26" value="Reservation" style="swimlane;childLayout=stackLayout;horizontal=1;startSize=50;horizontalStack=0;rounded=1;fontSize=14;fontStyle=0;strokeWidth=2;resizeParent=0;resizeLast=1;shadow=0;dashed=0;align=center;arcSize=4;whiteSpace=wrap;html=1;" vertex="1" parent="1">
          <mxGeometry x="190" y="410" width="160" height="160" as="geometry" />
        </mxCell>
        <mxCell id="iEVl-Ih44DvoOuaY-pbR-27" value="Reservation_ID&lt;div&gt;User_ID&lt;div&gt;Accommodations_ID&lt;/div&gt;&lt;div&gt;Room_ID&lt;br&gt;Payment Status&lt;/div&gt;&lt;div&gt;Start date&lt;br&gt;End date&lt;/div&gt;&lt;div&gt;&lt;br&gt;&lt;/div&gt;&lt;/div&gt;" style="align=left;strokeColor=none;fillColor=none;spacingLeft=4;spacingRight=4;fontSize=12;verticalAlign=top;resizable=0;rotatable=0;part=1;html=1;whiteSpace=wrap;" vertex="1" parent="iEVl-Ih44DvoOuaY-pbR-26">
          <mxGeometry y="50" width="160" height="110" as="geometry" />
        </mxCell>
        <mxCell id="iEVl-Ih44DvoOuaY-pbR-28" value="" style="edgeStyle=entityRelationEdgeStyle;fontSize=12;html=1;endArrow=ERoneToMany;rounded=0;exitX=0.5;exitY=1;exitDx=0;exitDy=0;" edge="1" parent="1" source="iEVl-Ih44DvoOuaY-pbR-23">
          <mxGeometry width="100" height="100" relative="1" as="geometry">
            <mxPoint x="320" y="430" as="sourcePoint" />
            <mxPoint x="190" y="495" as="targetPoint" />
            <Array as="points">
              <mxPoint x="120" y="440" />
              <mxPoint x="270" y="340" />
              <mxPoint x="100" y="360" />
              <mxPoint x="80" y="450" />
              <mxPoint x="190" y="400" />
              <mxPoint x="160" y="450" />
              <mxPoint x="140" y="495" />
              <mxPoint x="150" y="370" />
              <mxPoint x="190" y="410" />
              <mxPoint x="290" y="330" />
            </Array>
          </mxGeometry>
        </mxCell>
        <mxCell id="iEVl-Ih44DvoOuaY-pbR-30" value="" style="edgeStyle=entityRelationEdgeStyle;fontSize=12;html=1;endArrow=ERzeroToOne;endFill=1;rounded=0;exitX=0;exitY=0.421;exitDx=0;exitDy=0;exitPerimeter=0;entryX=1;entryY=0.5;entryDx=0;entryDy=0;" edge="1" parent="1" source="iEVl-Ih44DvoOuaY-pbR-17" target="iEVl-Ih44DvoOuaY-pbR-27">
          <mxGeometry width="100" height="100" relative="1" as="geometry">
            <mxPoint x="320" y="430" as="sourcePoint" />
            <mxPoint x="420" y="330" as="targetPoint" />
          </mxGeometry>
        </mxCell>
        <mxCell id="iEVl-Ih44DvoOuaY-pbR-31" value="" style="edgeStyle=entityRelationEdgeStyle;fontSize=12;html=1;endArrow=ERoneToMany;rounded=0;exitX=1.003;exitY=0.452;exitDx=0;exitDy=0;exitPerimeter=0;" edge="1" parent="1" source="iEVl-Ih44DvoOuaY-pbR-21">
          <mxGeometry width="100" height="100" relative="1" as="geometry">
            <mxPoint x="320" y="430" as="sourcePoint" />
            <mxPoint x="490" y="520" as="targetPoint" />
            <Array as="points">
              <mxPoint x="590" y="440" />
            </Array>
          </mxGeometry>
        </mxCell>
      </root>
    </mxGraphModel>
  </diagram>
</mxfile>
